# xmcd
#
# Track frame offsets:
#	150
#	12330
#	23355
#	33751
#	47788
#	58449
#	72177
#	85122
#	97841
#	110112
#	122920
#	140497
#	152159
#	162881
#
# Disc length: 2334 seconds
#
# Revision: 1
# Processed by: cddbd v1.5.2PL0 Copyright (c) Steve Scherf et al.
# Submitted via: audiograbber 1.83.01
#
DISCID=b3091c0e
DTITLE=George Jones, Mickey Gilley, T.G. Sheppard and More - Good Ol' Boy Count
DTITLE=ry, The Platinum Artist SERIES
DYEAR=2007
DGENRE=Country
TTITLE0=Moe Bandy - Good Ol' Boys
TTITLE1=Merle Haggard - Mama Tried (Live)
TTITLE2=Louisiana Saturday Night - Mel McDaniel
TTITLE3=I'm the Only Hell (Mama Ever Raised) - Johnny Paycheck
TTITLE4=Waylon Jennings - Sally Was A Good Old Girl
TTITLE5=Mickey Gilley - Don't the Girls All Get Prettier at Closing Time (Live)
TTITLE6=Cal Smith - The Lord Knows I'm Drinking
TTITLE7=George Jones - Brothers of a Bottle
TTITLE8=Johnny Russell - Rednecks, White Sox and Blue Ribbon Beer
TTITLE9=T.G. Sheppard - Devil in the Bottle
TTITLE10=Merle Haggard - I Think I'll Just Stay Here And Drink
TTITLE11=George Jones - White Lightning
TTITLE12=Johnny Bush - Whiskey River
TTITLE13=Johnny Paycheck - Take This Job and Shove It
EXTD=
EXTT0=
EXTT1=
EXTT2=
EXTT3=
EXTT4=
EXTT5=
EXTT6=
EXTT7=
EXTT8=
EXTT9=
EXTT10=
EXTT11=
EXTT12=
EXTT13=
PLAYORDER=
